<svg id="cancel" xmlns="http://www.w3.org/2000/svg" width="42.039" height="42.039" viewBox="0 0 42.039 42.039">
  <defs>
    <style>
      .cls-1 {
        fill: #282828;
      }
    </style>
  </defs>
  <g id="Group_489" data-name="Group 489">
    <path id="Path_434" data-name="Path 434" class="cls-1" d="M21.019,42.039A21.019,21.019,0,1,0,0,21.019,21.044,21.044,0,0,0,21.019,42.039Zm0-39.938A18.919,18.919,0,1,1,2.1,21.019,18.94,18.94,0,0,1,21.019,2.1Z"/>
    <path id="Path_435" data-name="Path 435" class="cls-1" d="M177.009,188.135a1.055,1.055,0,0,0,1.492,0l4.08-4.08,4.08,4.08a1.052,1.052,0,1,0,1.492-1.483l-4.1-4.08,4.08-4.08a1.049,1.049,0,0,0-1.483-1.483l-4.08,4.08-4.08-4.08a1.049,1.049,0,1,0-1.483,1.483l4.08,4.08-4.08,4.08A1.045,1.045,0,0,0,177.009,188.135Z" transform="translate(-161.553 -161.553)"/>
  </g>
</svg>
