<svg id="check-mark" xmlns="http://www.w3.org/2000/svg" width="42" height="42" viewBox="0 0 42 42">
  <defs>
    <style>
      .cls-1 {
        fill: #282828;
      }
    </style>
  </defs>
  <g id="Group_490" data-name="Group 490">
    <path id="Path_436" data-name="Path 436" class="cls-1" d="M21,42A21,21,0,1,0,0,21,21.024,21.024,0,0,0,21,42ZM21,2.1A18.9,18.9,0,1,1,2.1,21,18.923,18.923,0,0,1,21,2.1Z"/>
    <path id="Path_437" data-name="Path 437" class="cls-1" d="M123.294,155.288a1.05,1.05,0,0,0,.745.308h0a1.045,1.045,0,0,0,.737-.308l12.633-12.564a1.05,1.05,0,0,0,.308-.745,1.065,1.065,0,0,0-.308-.745l-3.82-3.837a1.052,1.052,0,0,0-1.482-.009l-8.051,8.008-2.929-2.946a1.05,1.05,0,0,0-.745-.308h0a1.045,1.045,0,0,0-.737.308l-3.837,3.82a1.05,1.05,0,0,0-.308.745,1.065,1.065,0,0,0,.308.745Zm-2.912-10.611,2.938,2.955a1.052,1.052,0,0,0,1.482.009l8.051-8.008,2.338,2.347-11.142,11.082-6.012-6.046Z" transform="translate(-105.608 -125.347)"/>
  </g>
</svg>
