<svg xmlns="http://www.w3.org/2000/svg" width="369.462" height="347.712" viewBox="0 0 369.462 347.712">
  <g id="noun_color_3480612" transform="translate(-16 -15.998)">
    <path id="Path_485" data-name="Path 485" d="M224,216a72,72,0,1,0,72,72A72,72,0,0,0,224,216Zm0,128a56,56,0,1,1,56-56,56,56,0,0,1-56,56Z" transform="translate(-47.732 -73.934)"/>
    <path id="Path_486" data-name="Path 486" d="M381.661,60.984l-5.687-2.217,4.711-10.712c5.208-11.827-.76-25.387-13.328-30.286s-26.976.717-32.182,12.545l-4.716,10.711-5.688-2.217a6.3,6.3,0,0,0-8.046,3.137L307.3,63.357a5.68,5.68,0,0,0,3.332,7.571l5.7,2.219L304.545,99.92h0l-6.719,15.261A160.449,160.449,0,0,0,249.05,78.873,166.468,166.468,0,0,0,176.1,62.361C87.821,62.361,16,129.953,16,213.035S87.821,363.71,176.1,363.71s160.1-67.593,160.1-150.674a142.334,142.334,0,0,0-7.737-46.389c.132-.264.26-.532.379-.8l21.206-48.188h0l11.784-26.767,5.69,2.217a6.507,6.507,0,0,0,4.714,0,5.981,5.981,0,0,0,3.332-3.139l9.426-21.416a5.68,5.68,0,0,0-3.332-7.568ZM346.554,34.748c2.6-5.914,9.807-8.721,16.09-6.271s9.266,9.231,6.662,15.145L364.6,54.329l-22.758-8.872Zm-54.073,92.568-9.139,20.757L252.81,164.662A91.8,91.8,0,0,0,213.4,133.518l19-49.12q5.585,2.173,11.027,4.788A147.58,147.58,0,0,1,292.481,127.317Zm-8.73,34.975-4.156,9.445c-3.906,8.87.568,19.041,9.994,22.716s20.232-.536,24.138-9.406l4.161-9.453c.176-.058.349-.124.522-.187a131.861,131.861,0,0,1,4.176,56.057l-54.658-9.073a82.087,82.087,0,0,0-8.948-47.7l24.372-13.243Q283.538,161.875,283.751,162.291ZM169.942,299.765V351.99a152.734,152.734,0,0,1-83.994-28.827l35.657-39.987a95.455,95.455,0,0,0,48.337,16.589Zm12.315,0A95.456,95.456,0,0,0,230.6,283.176l35.657,39.987a152.734,152.734,0,0,1-83.995,28.827ZM176.1,288.372c-44.21,0-80.05-33.73-80.05-75.337S131.89,137.7,176.1,137.7s80.05,33.73,80.05,75.337c-.05,41.588-35.86,75.29-80.05,75.337ZM220.83,80.426l-19,49.118a98.058,98.058,0,0,0-51.464,0L131.385,80.465a157.236,157.236,0,0,1,89.444-.039ZM119.817,84.441,138.8,133.52A91.8,91.8,0,0,0,99.39,164.664L51.342,138.558a146.822,146.822,0,0,1,68.475-54.117ZM45.172,148.589l48.05,26.105a82.08,82.08,0,0,0-8.949,47.7l-54.659,9.073a131.563,131.563,0,0,1,15.557-82.875ZM31.751,242.88,86.406,233.8a85.936,85.936,0,0,0,25.77,41.916L76.517,315.707A137.528,137.528,0,0,1,31.751,242.88Zm243.932,72.83-35.658-39.987a85.936,85.936,0,0,0,25.77-41.917l54.654,9.073a137.527,137.527,0,0,1-44.766,72.83Zm41.778-154.3a6.117,6.117,0,0,1-4.879,3.52,6.116,6.116,0,0,0-4.885,3.527l-5.35,12.148a6.3,6.3,0,0,1-8.046,3.134,5.68,5.68,0,0,1-3.329-7.573l5.343-12.14a5.521,5.521,0,0,0-.8-5.744,5.537,5.537,0,0,1-.806-5.751l18.858-42.827,22.75,8.867Zm23.566-53.549L318.275,99,327.7,77.582l22.752,8.87Zm25.518-27.684L321.037,62.438l4.713-10.708,45.512,17.742Z" transform="translate(0)"/>
  </g>
</svg>
