<svg xmlns="http://www.w3.org/2000/svg" width="95.004" height="95.1" viewBox="0 0 95.004 95.1">
  <g id="noun_component_3120666" transform="translate(-2.4 -2.5)">
    <g id="Group_528" data-name="Group 528">
      <path id="Path_488" data-name="Path 488" d="M93.9,36.9H86.8c-.4-1.3-1-2.5-1.5-3.7l5-5a3.621,3.621,0,0,0,0-5.1L76.9,9.7a3.621,3.621,0,0,0-5.1,0l-5,5a23.877,23.877,0,0,0-3.7-1.5V6.1a3.585,3.585,0,0,0-3.6-3.6h-19a3.585,3.585,0,0,0-3.6,3.6v7.1c-1.3.4-2.5,1-3.7,1.5l-5-5a3.621,3.621,0,0,0-5.1,0L9.7,23.1a3.621,3.621,0,0,0,0,5.1l5,5a23.877,23.877,0,0,0-1.5,3.7H6.1A3.631,3.631,0,0,0,3.5,38a3.631,3.631,0,0,0-1.1,2.6V59.5A3.585,3.585,0,0,0,6,63.1h7.1c.4,1.3,1,2.5,1.5,3.7l-5,5a3.623,3.623,0,0,0,0,5.2L23,90.4a3.621,3.621,0,0,0,5.1,0l5-5a23.877,23.877,0,0,0,3.7,1.5V94a3.585,3.585,0,0,0,3.6,3.6H59.3A3.585,3.585,0,0,0,62.9,94V86.9c1.3-.5,2.5-1,3.7-1.5l5,5a3.631,3.631,0,0,0,2.6,1.1h0a3.631,3.631,0,0,0,2.6-1.1L90.2,77a3.621,3.621,0,0,0,0-5.1l-5-5a23.877,23.877,0,0,0,1.5-3.7h7.1a3.585,3.585,0,0,0,3.6-3.6V40.5A3.442,3.442,0,0,0,93.9,36.9ZM90.2,55.8H84.1a3.632,3.632,0,0,0-3.5,2.7,30.428,30.428,0,0,1-3,7.2,3.649,3.649,0,0,0,.6,4.4l4.3,4.3-8.2,8.2L70,78.3a3.63,3.63,0,0,0-4.4-.6,30.428,30.428,0,0,1-7.2,3,3.632,3.632,0,0,0-2.7,3.5v6.1H44.2V84.2a3.632,3.632,0,0,0-2.7-3.5,30.428,30.428,0,0,1-7.2-3,3.649,3.649,0,0,0-4.4.6l-4.3,4.3-8.2-8.2,4.3-4.3a3.63,3.63,0,0,0,.6-4.4,30.428,30.428,0,0,1-3-7.2,3.632,3.632,0,0,0-3.5-2.7h-6V44.2h6.1a3.632,3.632,0,0,0,3.5-2.7,30.428,30.428,0,0,1,3-7.2,3.649,3.649,0,0,0-.6-4.4l-4.3-4.3,8.2-8.2L30,21.7a3.63,3.63,0,0,0,4.4.6,28.784,28.784,0,0,1,7.2-3,3.632,3.632,0,0,0,2.7-3.5v-6H55.9v6.1a3.632,3.632,0,0,0,2.7,3.5,28.784,28.784,0,0,1,7.2,3,3.649,3.649,0,0,0,4.4-.6l4.3-4.3,8.2,8.2L78.4,30a3.63,3.63,0,0,0-.6,4.4,28.784,28.784,0,0,1,3,7.2,3.632,3.632,0,0,0,3.5,2.7h6.1V55.8Z"/>
      <path id="Path_489" data-name="Path 489" d="M70.2,48.3a4.648,4.648,0,0,0-2.1.5,6.812,6.812,0,0,1-2.8.7h-.7v-10a2.689,2.689,0,0,0-2.7-2.7H53.4v-.6a6.41,6.41,0,0,1,.8-3,5.34,5.34,0,0,0,.5-1.8,4.833,4.833,0,0,0-4.5-4.9,4.615,4.615,0,0,0-4.3,6.7,6.812,6.812,0,0,1,.7,2.8v.7H38.1a2.689,2.689,0,0,0-2.7,2.7V49.5h-.6a6.41,6.41,0,0,1-3-.8,5.34,5.34,0,0,0-1.8-.5,4.767,4.767,0,0,0-4.9,4.5A4.615,4.615,0,0,0,31.8,57a6.812,6.812,0,0,1,2.8-.7h.7V66.4A2.689,2.689,0,0,0,38,69.1h7.6a.9.9,0,0,0,.9-.9,5.2,5.2,0,0,0-.7-2.5,4.282,4.282,0,0,1-.6-2.2A4.575,4.575,0,0,1,50,58.9a4.7,4.7,0,0,1,4.5,4.9,5.562,5.562,0,0,1-.6,2.1,5.135,5.135,0,0,0-.6,2.5h0a.9.9,0,0,0,.9.9h7.7a2.689,2.689,0,0,0,2.7-2.7V56.4h.6a6.41,6.41,0,0,1,3,.8,5.34,5.34,0,0,0,1.8.5,4.7,4.7,0,1,0,.2-9.4Z"/>
    </g>
  </g>
</svg>
