<svg xmlns="http://www.w3.org/2000/svg" width="58" height="60" viewBox="0 0 58 60">
  <g id="noun_Typography_2234589" transform="translate(-3 -2)">
    <g id="Group_527" data-name="Group 527">
      <path id="Path_483" data-name="Path 483" d="M4,50a1,1,0,0,0-1,1v6a1,1,0,0,0,1,1H60a1,1,0,0,0,1-1V51a1,1,0,0,0-1-1H58V35h2a1,1,0,0,0,1-1V28a1,1,0,0,0-1-1H58V10h2a1,1,0,0,0,1-1V3a1,1,0,0,0-1-1H54a1,1,0,0,0-1,1V5H36V3a1,1,0,0,0-1-1H29a1,1,0,0,0-1,1V5H11V3a1,1,0,0,0-1-1H4A1,1,0,0,0,3,3V9a1,1,0,0,0,1,1H6V27H4a1,1,0,0,0-1,1v6a1,1,0,0,0,1,1H6V50Zm55,6H57V54H55v2H53V54H51v2H49V54H47v2H45V54H43v2H41V54H39v2H37V54H35v2H33V54H31v2H29V54H27v2H25V54H23v2H21V54H19v2H17V54H15v2H13V54H11v2H9V54H7v2H5V52H59Zm0-23H55V29h4ZM55,4h4V8H55ZM30,4h4V8H30ZM5,4H9V8H5ZM5,29H9v4H5Zm3,6h2a1,1,0,0,0,1-1V28a1,1,0,0,0-1-1H8V10h2a1,1,0,0,0,1-1V7H28V9a1,1,0,0,0,1,1h6a1,1,0,0,0,1-1V7H53V9a1,1,0,0,0,1,1h2V27H54a1,1,0,0,0-1,1v6a1,1,0,0,0,1,1h2V50H8Z"/>
      <rect id="Rectangle_81" data-name="Rectangle 81" width="2" height="2" transform="translate(34 31)"/>
      <path id="Path_484" data-name="Path 484" d="M46,13H18a1,1,0,0,0-1,1V26a1,1,0,0,0,1,1h4a1,1,0,0,0,1-1V21h5V41H23a1,1,0,0,0-1,1v4a1,1,0,0,0,1,1H41a1,1,0,0,0,1-1V42a1,1,0,0,0-1-1H36V35H34v7a1,1,0,0,0,1,1h5v2H24V43h5a1,1,0,0,0,1-1V20a1,1,0,0,0-1-1H22a1,1,0,0,0-1,1v5H19V15H45V25H43V20a1,1,0,0,0-1-1H35a1,1,0,0,0-1,1v9h2V21h5v5a1,1,0,0,0,1,1h4a1,1,0,0,0,1-1V14A1,1,0,0,0,46,13Z"/>
      <rect id="Rectangle_82" data-name="Rectangle 82" width="36" height="2" transform="translate(12 60)"/>
      <rect id="Rectangle_83" data-name="Rectangle 83" width="2" height="2" transform="translate(50 60)"/>
    </g>
  </g>
</svg>
