<svg id="noun_charity_bin_1142807" data-name="noun_charity bin_1142807" xmlns="http://www.w3.org/2000/svg" width="109.723" height="140.958" viewBox="0 0 109.723 140.958">
  <defs>
    <style>
      .cls-1 {
        fill: #282828;
      }
    </style>
  </defs>
  <path id="Path_7" data-name="Path 7" class="cls-1" d="M20.857,40.778V151.984a1.881,1.881,0,0,0,1.882,1.882H128.7a1.881,1.881,0,0,0,1.882-1.882V40.778a27.9,27.9,0,0,0-27.869-27.871H48.726A27.9,27.9,0,0,0,20.857,40.778Zm3.763,0A24.135,24.135,0,0,1,48.726,16.67h53.983a24.134,24.134,0,0,1,24.106,24.108V150.1H24.62Z" transform="translate(-20.857 -12.907)"/>
  <path id="Path_8" data-name="Path 8" class="cls-1" d="M29.513,35.46v25.7a1.881,1.881,0,0,0,1.882,1.882h73.384a1.881,1.881,0,0,0,1.882-1.882V35.46a14.212,14.212,0,0,0-14.2-14.2H43.708A14.211,14.211,0,0,0,29.513,35.46Zm3.763,0A10.444,10.444,0,0,1,43.708,25.026H92.464A10.444,10.444,0,0,1,102.9,35.46V59.274H33.274V35.46Z" transform="translate(-13.225 -5.54)"/>
  <path id="Path_9" data-name="Path 9" class="cls-1" d="M44.685,26.9h23.37a1.882,1.882,0,1,1,0,3.763H44.685a1.882,1.882,0,1,1,0-3.763Z" transform="translate(-1.508 -0.574)"/>
  <path id="Path_10" data-name="Path 10" class="cls-1" d="M36.167,61.18a1.88,1.88,0,0,0-.427,2.156l5.494,12.028a1.883,1.883,0,0,0,3,.589,17.206,17.206,0,0,1,3.735-2.593L47.306,98.7a1.883,1.883,0,0,0,1.878,1.932l27.128.021h0a1.88,1.88,0,0,0,1.88-1.932L77.52,73.361a17.2,17.2,0,0,1,3.735,2.595,1.885,1.885,0,0,0,3-.591l5.494-12.028a1.879,1.879,0,0,0-.427-2.156C80.1,52.567,70.857,51.542,70.468,51.5A1.883,1.883,0,0,0,68.4,53.373a5.508,5.508,0,0,1-11.015,0A1.881,1.881,0,0,0,55.5,51.491h-.3c-.064,0-.126,0-.19.009C54.63,51.54,45.393,52.565,36.167,61.18Zm3.569,1.848a33.683,33.683,0,0,1,14.142-7.495A9.272,9.272,0,0,0,71.9,55.6a33.92,33.92,0,0,1,13.862,7.429l-3.914,8.565a13.066,13.066,0,0,0-6.123-2.632c-.047,0-.1-.006-.145-.006a1.882,1.882,0,0,0-1.882,1.931l.689,26L51.12,96.873,51.8,70.883a1.877,1.877,0,0,0-.585-1.413,1.918,1.918,0,0,0-1.441-.512,13.1,13.1,0,0,0-6.123,2.631Z" transform="translate(-7.886 21.111)"/>
</svg>
