<svg id="placeholder" xmlns="http://www.w3.org/2000/svg" width="37.708" height="46.65" viewBox="0 0 37.708 46.65">
  <g id="Group_399" data-name="Group 399" transform="translate(0)">
    <path id="Path_195" data-name="Path 195" d="M151.806,97.4a9.759,9.759,0,1,0,9.754,9.763A9.765,9.765,0,0,0,151.806,97.4Zm0,17.179a7.416,7.416,0,1,1,7.416-7.416A7.423,7.423,0,0,1,151.806,114.579Z" transform="translate(-132.966 -88.104)"/>
    <path id="Path_196" data-name="Path 196" d="M65.688,0c-.22,0-.449,0-.668.01A18.836,18.836,0,0,0,47.183,22.38a5.97,5.97,0,0,0,.134.63,18.015,18.015,0,0,0,1.26,3.7C50.513,31.3,54.76,38.375,63.98,46.03a2.715,2.715,0,0,0,3.455,0c9.21-7.645,13.457-14.726,15.385-19.278a18.505,18.505,0,0,0,1.269-3.732c.057-.229.1-.42.124-.6A18.837,18.837,0,0,0,65.688,0ZM81.893,22.017c0,.019-.029.181-.1.477a17.167,17.167,0,0,1-1.126,3.312c-1.842,4.352-5.889,11.08-14.736,18.419a.386.386,0,0,1-.239.086.4.4,0,0,1-.239-.086c-8.847-7.349-12.9-14.077-14.755-18.458a16.44,16.44,0,0,1-1.117-3.283c-.057-.248-.086-.4-.1-.449,0-.019-.01-.038-.01-.057a16.808,16.808,0,0,1-.22-4.743A16.507,16.507,0,0,1,82.2,18.849,17.123,17.123,0,0,1,81.893,22.017Z" transform="translate(-46.848)"/>
  </g>
</svg>
