<svg id="telephone-3" xmlns="http://www.w3.org/2000/svg" width="45.884" height="46.058" viewBox="0 0 45.884 46.058">
  <path id="Path_360" data-name="Path 360" d="M10.21,30.616A48.863,48.863,0,0,0,26.463,43.348a25.3,25.3,0,0,0,9.1,2.691c.22.01.429.019.649.019a7.532,7.532,0,0,0,5.841-2.51.208.208,0,0,0,.038-.048,24.591,24.591,0,0,1,1.842-1.909c.449-.429.907-.878,1.346-1.336a4.608,4.608,0,0,0-.019-6.862l-5.736-5.736a4.643,4.643,0,0,0-3.359-1.546,4.8,4.8,0,0,0-3.4,1.537l-3.417,3.417c-.315-.181-.639-.344-.945-.5A11.8,11.8,0,0,1,27.35,30a36.16,36.16,0,0,1-8.637-7.864,20.823,20.823,0,0,1-2.92-4.657c.9-.811,1.737-1.661,2.548-2.491.286-.3.582-.592.878-.888A4.893,4.893,0,0,0,20.8,10.66a4.854,4.854,0,0,0-1.584-3.436L16.375,4.381c-.334-.334-.649-.659-.973-.993-.63-.649-1.288-1.317-1.937-1.918A4.758,4.758,0,0,0,10.1,0a4.9,4.9,0,0,0-3.4,1.479L3.138,5.049a7.334,7.334,0,0,0-2.186,4.7,17.663,17.663,0,0,0,1.327,7.635A44.418,44.418,0,0,0,10.21,30.616ZM3.281,9.945A5.048,5.048,0,0,1,4.8,6.7l3.55-3.55A2.57,2.57,0,0,1,10.1,2.338a2.439,2.439,0,0,1,1.718.83c.639.592,1.241,1.212,1.89,1.871.324.334.659.668.993,1.012l2.844,2.844a2.592,2.592,0,0,1,.9,1.785,2.592,2.592,0,0,1-.9,1.785c-.3.3-.592.6-.888.9-.888.9-1.718,1.747-2.634,2.558l-.048.048a1.866,1.866,0,0,0-.477,2.119c.01.029.019.048.029.076a22.461,22.461,0,0,0,3.35,5.449,38.164,38.164,0,0,0,9.2,8.379,13.66,13.66,0,0,0,1.26.687,11.8,11.8,0,0,1,1.05.573c.038.019.067.038.1.057a2,2,0,0,0,.926.239,2.024,2.024,0,0,0,1.422-.649l3.569-3.569a2.526,2.526,0,0,1,1.747-.849,2.4,2.4,0,0,1,1.689.849L43.6,35.073a2.3,2.3,0,0,1-.029,3.6c-.4.429-.821.84-1.269,1.269a27.484,27.484,0,0,0-1.995,2.071,5.24,5.24,0,0,1-4.094,1.737c-.162,0-.334-.01-.5-.019a22.981,22.981,0,0,1-8.227-2.462,46.42,46.42,0,0,1-15.47-12.121A42.516,42.516,0,0,1,4.484,16.6,15.393,15.393,0,0,1,3.281,9.945Z" transform="translate(-0.912 0)"/>
</svg>
